<?xml version="1.0" standalone="no"?>
<!DOCTYPE svg PUBLIC "-//W3C//DTD SVG 20010904//EN" "http://www.w3.org/TR/2001/REC-SVG-20010904/DTD/svg10.dtd"> <svg version="1.0" xmlns="http://www.w3.org/2000/svg" width="815.000000pt" height="362.000000pt" viewBox="0 0 815.000000 362.000000" preserveAspectRatio="xMidYMid meet"> <g transform="translate(0.000000,362.000000) scale(0.100000,-0.100000)" fill="#000000" stroke="none"> <path d="M3170 3391 c-57 -18 -142 -69 -250 -150 -63 -48 -157 -115 -208 -150 -108 -74 -231 -192 -285 -273 -56 -85 -52 -158 16 -245 29 -38 103 -103 136 -120 20 -10 60 -33 89 -50 29 -18 54 -33 57 -33 3 0 28 -15 57 -34 54 -34 136 -76 149 -76 4 0 66 -29 137 -63 130 -64 207 -87 289 -87 88 0 166 110 180 255 l8 80 725 3 c399 1 752 -1 785 -6 l60 -7 5 -1104 5 -1105 33 -19 c31 -18 52 -20 309 -18 269 2 299 5 329 35 40 40 39 19 44 1086 l5 1025 510 5 c375 4 516 8 531 17 29 17 36 111 36 447 -1 234 -3 260 -19 278 -44 50 31 48 -1731 48 l-1649 0 -17 58 c-22 71 -80 159 -125 189 -28 19 -47 23 -110 22 -42 0 -87 -4 -101 -8z m191 -87 c38 -36 79 -114 94 -179 l12 -50 1674 -5 c921 -3 1681 -9 1690 -13 35 -17 39 -53 39 -337 0 -240 -2 -281 -16 -294 -8 -9 -16 -17 -17 -18 -1 -1 -235 -4 -519 -7 -405 -5 -520 -9 -530 -19 -10 -10 -13 -212 -15 -1034 -1 -561 -4 -1031 -7 -1044 -4 -13 -14 -28 -24 -33 -9 -5 -134 -10 -277 -12 l-260 -4 -14 30 c-12 25 -14 190 -13 1097 1 1204 8 1102 -78 1119 -67 12 -1567 11 -1591 -1 -12 -7 -19 -21 -19 -40 0 -50 -30 -172 -50 -204 -10 -17 -32 -44 -48 -60 -27 -25 -35 -27 -74 -21 -71 12 -119 31 -311 125 -342 169 -498 274 -542 366 -9 20 -14 46 -11 59 20 81 231 281 420 400 17 11 65 45 106 76 144 107 221 141 303 135 36 -2 55 -10 78 -32z"/> <path d="M2131 2460 c-31 -13 -66 -54 -91 -105 -18 -39 -58 -171 -68 -227 -2 -15 -10 -32 -16 -37 -8 -7 -307 -11 -837 -13 -803 -3 -825 -4 -858 -23 -66 -39 -75 -61 -79 -203 -4 -116 9 -307 23 -344 3 -8 22 -22 41 -31 30 -15 81 -17 419 -17 l385 0 0 -610 0 -609 35 -35 c19 -19 49 -38 67 -41 18 -4 148 -5 288 -3 256 3 256 3 287 28 l32 25 3 650 3 650 115 0 115 0 6 -80 c7 -93 23 -157 45 -180 33 -32 74 -47 117 -40 73 12 216 88 290 154 18 16 57 48 87 70 77 58 237 216 308 306 62 78 76 136 49 197 -14 32 -226 249 -287 293 -22 17 -46 35 -53 40 -7 6 -35 26 -62 44 -28 19 -52 37 -55 41 -8 9 -92 63 -130 84 -40 22 -143 31 -179 16z m161 -57 c36 -17 191 -126 243 -168 103 -85 247 -225 280 -270 50 -71 47 -101 -14 -184 -108 -144 -395 -395 -544 -473 -141 -75 -191 -43 -203 129 -9 148 11 133 -174 133 -147 0 -160 -1 -170 -19 -6 -13 -10 -239 -10 -663 0 -488 -3 -647 -12 -656 -9 -9 -84 -12 -274 -12 -243 0 -263 1 -285 19 l-24 19 -3 613 c-2 420 -6 617 -14 626 -8 10 -93 13 -403 13 -469 0 -436 -9 -446 121 -10 117 -10 256 0 309 6 28 19 53 36 67 l26 23 848 0 849 0 10 28 c5 15 22 77 36 137 15 63 38 129 54 155 46 76 114 94 194 53z"/> <path d="M2100 1163 c-14 -2 -70 -13 -126 -24 -144 -30 -134 1 -134 -423 0 -482 8 -508 163 -514 102 -5 122 8 173 114 19 41 40 74 45 74 5 0 30 -28 57 -62 26 -34 63 -80 82 -101 33 -38 36 -39 86 -35 28 2 73 16 99 30 88 46 107 126 56 234 -25 54 -122 204 -157 245 -21 24 -17 35 16 49 16 7 43 33 60 58 25 38 30 55 30 105 0 70 -17 111 -68 160 -48 46 -128 76 -222 83 -41 2 -88 6 -105 8 -16 1 -41 1 -55 -1z m206 -64 c118 -20 194 -91 194 -179 0 -75 -42 -125 -122 -144 -42 -10 -35 -36 30 -118 83 -104 117 -157 146 -223 43 -96 32 -136 -49 -174 -77 -36 -85 -32 -169 77 -79 102 -108 132 -129 132 -8 0 -33 -39 -56 -87 -59 -120 -72 -133 -137 -133 -41 0 -59 5 -81 24 l-28 24 -3 386 c-1 212 -1 386 0 386 2 1 44 9 93 19 105 22 223 25 311 10z"/> <path d="M2066 994 c-3 -9 -6 -56 -6 -105 0 -88 1 -90 26 -100 30 -11 87 3 116 28 31 27 42 69 28 104 -27 65 -147 118 -164 73z m91 -66 c13 -12 23 -28 23 -36 0 -22 -30 -52 -52 -52 -15 0 -18 8 -18 55 0 61 10 68 47 33z"/> <path d="M4570 1125 c-69 -33 -115 -76 -147 -139 -69 -135 -121 -385 -109 -526 7 -83 28 -164 48 -183 58 -56 114 -61 197 -17 45 25 63 42 91 90 19 33 39 60 43 60 20 0 46 -49 53 -98 8 -66 39 -92 109 -92 79 0 132 37 173 120 23 49 27 70 30 180 6 178 -25 336 -89 462 -24 48 -67 92 -127 133 -38 25 -54 29 -130 32 -77 4 -93 1 -142 -22z m257 -67 c59 -42 95 -92 127 -178 44 -117 59 -209 54 -343 -4 -105 -8 -129 -29 -172 -54 -107 -169 -131 -184 -37 -11 69 -14 77 -40 105 -19 19 -36 27 -61 27 -30 0 -39 -6 -67 -47 -59 -86 -98 -122 -142 -129 -32 -5 -46 -1 -68 16 -16 13 -33 34 -39 49 -44 112 13 471 98 618 29 49 88 102 135 120 20 7 62 11 101 9 57 -3 74 -8 115 -38z"/> <path d="M4616 884 c-28 -28 -46 -87 -48 -151 0 -37 4 -50 21 -65 50 -40 158 -44 194 -7 34 36 16 168 -29 210 -13 12 -44 25 -69 29 -39 6 -48 4 -69 -16z m116 -85 c11 -19 17 -49 16 -69 -3 -33 -5 -35 -45 -38 -52 -4 -83 12 -83 41 0 36 19 95 37 112 13 14 18 14 36 2 11 -7 29 -29 39 -48z"/> <path d="M7522 1087 c-59 -19 -172 -136 -172 -179 0 -7 -6 -24 -13 -38 -38 -72 -83 -332 -72 -417 9 -75 46 -156 81 -180 67 -43 168 -2 230 94 18 29 38 53 43 53 21 0 40 -33 47 -78 9 -68 35 -92 99 -92 160 0 232 201 175 488 -34 171 -89 266 -194 336 -34 23 -49 26 -115 25 -42 -1 -91 -6 -109 -12z m206 -66 c87 -63 133 -150 163 -310 45 -244 -15 -423 -136 -409 -27 3 -30 7 -41 61 -15 78 -45 109 -98 105 -37 -3 -44 -8 -79 -61 -130 -197 -251 -81 -211 202 24 167 82 329 136 377 37 34 76 56 111 63 45 10 122 -4 155 -28z"/> <path d="M7552 867 c-50 -60 -68 -180 -31 -213 30 -27 152 -33 179 -9 40 36 20 156 -34 210 -28 28 -95 35 -114 12z m91 -69 c12 -17 21 -44 21 -70 1 -43 1 -43 -36 -46 -75 -6 -94 27 -62 108 20 48 45 51 77 8z"/> <path d="M2945 1081 c-81 -20 -157 -65 -215 -129 -72 -79 -100 -145 -107 -259 -17 -258 162 -446 422 -446 78 0 215 34 215 54 0 4 8 10 18 13 34 11 108 95 142 163 29 58 34 81 38 155 5 100 -6 156 -49 245 -48 99 -135 165 -262 199 -55 15 -152 17 -202 5z m172 -56 c64 -15 147 -59 196 -104 67 -61 105 -181 93 -292 -14 -141 -108 -262 -239 -308 -94 -33 -198 -28 -282 13 -76 38 -149 111 -183 184 -23 48 -27 71 -27 147 0 82 3 97 33 157 53 107 143 178 262 204 72 16 75 16 147 -1z"/> <path d="M2964 801 c-55 -33 -74 -67 -74 -130 0 -72 24 -111 85 -141 110 -53 215 17 215 145 0 62 -25 106 -73 128 -47 23 -114 22 -153 -2z m116 -47 c30 -18 60 -62 60 -89 0 -30 -33 -74 -67 -90 -30 -14 -35 -14 -65 1 -44 23 -57 38 -64 72 -11 53 40 118 94 121 8 1 26 -6 42 -15z"/> <path d="M3815 1067 c-150 -48 -249 -149 -287 -290 -22 -86 -23 -150 -2 -230 21 -82 47 -131 97 -180 79 -78 142 -111 245 -128 160 -27 352 49 398 158 35 80 7 200 -52 228 -43 20 -80 13 -143 -26 -25 -17 -75 -39 -111 -50 -63 -19 -65 -19 -90 -1 -68 51 -82 203 -22 249 20 15 69 8 89 -13 22 -22 93 -36 152 -32 47 4 59 10 88 41 27 30 33 45 33 79 0 97 -38 153 -123 185 -56 20 -220 26 -272 10z m228 -57 c118 -36 158 -139 74 -190 -44 -27 -72 -25 -142 10 -137 69 -215 17 -215 -142 1 -118 48 -194 128 -205 45 -6 123 19 209 68 84 47 113 37 128 -44 14 -74 -26 -131 -135 -188 -40 -21 -58 -24 -155 -24 -101 0 -114 2 -164 28 -221 117 -275 402 -111 581 52 56 95 83 168 107 75 24 136 23 215 -1z"/> <path d="M6000 1041 l-25 -7 -3 -387 -2 -387 27 -11 c18 -7 110 -8 271 -3 294 9 277 -1 263 145 -5 52 -12 102 -16 112 -8 20 -9 20 -155 21 l-115 1 -3 33 -3  32 68 0 c57 0 73 4 92 21 20 19 22 28 17 67 -3 25 -6 55 -6 67 0 31 -47 47 -116 39 l-54 -7 0 31 0 30 119 4 c66 1 122 6 126 10 12 12 36 151 31 174 l-6 24 -243 -1 c-133 -1 -253 -4 -267 -8z m454 -88 c-4 -27 -12 -51 -18 -55 -6 -4 -56 -8 -112 -8 -126 0 -137 -8 -132 -96 l3 -59 83 -3 83 -3 -3 -42 -3 -41 -66 -1 c-88 0 -99 -10 -99 -89 0 -35 5 -67 12 -74 8 -8 54 -12 139 -12 l127 0 6 -31 c3 -17 6 -56 6 -85 l0 -54 -118 0 c-66 0 -167 -3 -225 -7 l-107 -6 0 350 c0 192 3 353 7 356 3 4 100 7 215 7 l209 0 -7 -47z"/> <path d="M6809 1022 c-186 -57 -309 -259 -270 -441 56 -262 322 -394 563 -279 82 39 116 74 138 145 16 51 2 108 -38 155 -34 40 -74 37 -166 -11 -87 -46 -137 -58 -172 -42 -65 29 -74 196 -12 235 13 8 33 3 86 -23 57 -28 78 -33 115 -29 155 18 170 206 22 278 -63 30 -189 36 -266 12z m226 -53 c89 -33 123 -112 70 -164 -32 -33 -75 -32 -145 1 -121 57 -182 24 -194 -105 -7 -78 5 -121 47 -170 38 -46 83 -50 170 -17 38 14 80 34 95 44 59 41 89 35 118 -20 13 -26 14 -37 4 -75 -15 -50 -45 -79 -127 -120 -52 -25 -68 -28 -153 -27 -117 0 -167 20 -241 96 -74 77 -93 123 -93 233 -1 79 3 98 28 154 30 64 86 120 160 158 73 38 179 43 261 12z"/>
</g>
</svg>
