<svg xmlns="http://www.w3.org/2000/svg" xmlns:xlink="http://www.w3.org/1999/xlink" width="200" zoomAndPan="magnify" viewBox="0 0 150 156.749997" height="209" preserveAspectRatio="xMidYMid meet" version="1.0"><defs><clipPath id="bd069a4ee9"><path d="M 66.074219 70.785156 L 79.554688 70.785156 L 79.554688 84.261719 L 66.074219 84.261719 Z M 66.074219 70.785156 " clip-rule="nonzero"/></clipPath><clipPath id="43d7597048"><path d="M 0.121094 0 L 149.132812 0 L 149.132812 155.75 L 0.121094 155.75 Z M 0.121094 0 " clip-rule="nonzero"/></clipPath></defs><g clip-path="url(#bd069a4ee9)"><path fill="#000000" d="M 72.816406 70.785156 C 76.535156 70.785156 79.554688 73.800781 79.554688 77.523438 C 79.554688 81.246094 76.535156 84.261719 72.816406 84.261719 C 69.09375 84.261719 66.074219 81.246094 66.074219 77.523438 C 66.074219 73.800781 69.09375 70.785156 72.816406 70.785156 Z M 72.816406 70.785156 " fill-opacity="1" fill-rule="evenodd"/></g><g clip-path="url(#43d7597048)"><path fill="#a6a6a6" d="M 74.714844 156.007812 C 68.816406 156.007812 64.296875 154.3125 61.152344 150.917969 C 58.003906 147.527344 56.433594 142.75 56.433594 136.582031 L 56.433594 95.269531 L 17.808594 95.269531 C 12.105469 95.269531 7.734375 93.730469 4.691406 90.644531 C 1.640625 87.5625 0.117188 83.039062 0.121094 77.078125 C 0.121094 71.121094 1.644531 66.597656 4.6875 63.515625 C 7.734375 60.429688 12.109375 58.886719 17.808594 58.890625 L 56.433594 58.890625 L 56.433594 19.117188 C 56.433594 12.949219 58.003906 8.222656 61.152344 4.933594 C 64.292969 1.648438 68.910156 0.00390625 75.007812 0 C 80.90625 0 85.375 1.644531 88.421875 4.933594 C 91.46875 8.222656 92.992188 12.949219 92.992188 19.117188 L 92.992188 58.890625 L 131.617188 58.890625 C 137.316406 58.890625 141.6875 60.429688 144.734375 63.515625 C 147.78125 66.597656 149.304688 71.117188 149.304688 77.078125 C 149.304688 83.042969 147.78125 87.566406 144.734375 90.644531 C 141.6875 93.726562 137.3125 95.269531 131.617188 95.269531 L 92.992188 95.269531 L 92.992188 136.582031 C 92.992188 142.75 91.46875 147.527344 88.421875 150.921875 C 85.375 154.3125 80.804688 156.007812 74.714844 156.007812 Z M 74.714844 156.007812 " fill-opacity="1" fill-rule="nonzero"/></g></svg>