<?xml version="1.0" standalone="no"?>
<!DOCTYPE svg PUBLIC "-//W3C//DTD SVG 20010904//EN"
 "http://www.w3.org/TR/2001/REC-SVG-20010904/DTD/svg10.dtd">
<svg version="1.0" xmlns="http://www.w3.org/2000/svg"
 width="1066.000000pt" height="1014.000000pt" viewBox="0 0 1066.000000 1014.000000"
 preserveAspectRatio="xMidYMid meet">

<g transform="translate(0.000000,1014.000000) scale(0.100000,-0.100000)"
fill="#000000" stroke="none">
<path d="M2350 9821 c-88 -15 -240 -61 -287 -86 -26 -14 -53 -25 -59 -25 -7 0
-36 -16 -65 -36 -30 -20 -65 -42 -79 -49 -14 -7 -75 -51 -136 -96 -61 -46
-137 -104 -170 -128 -32 -25 -79 -64 -104 -87 -75 -69 -320 -254 -505 -381
-153 -105 -526 -482 -586 -593 -9 -16 -34 -53 -57 -82 -43 -57 -93 -159 -117
-241 -11 -36 -15 -99 -15 -222 0 -242 13 -284 155 -500 114 -174 332 -364 494
-432 19 -8 81 -46 138 -84 57 -39 168 -102 246 -141 78 -38 178 -92 222 -118
87 -52 129 -75 340 -188 77 -41 158 -87 180 -102 74 -51 197 -106 355 -161
138 -48 254 -70 401 -76 122 -5 143 -3 214 18 42 12 103 39 134 59 110 71 272
277 321 407 11 29 29 94 41 145 11 51 25 106 30 122 5 16 9 51 9 77 l0 49 984
0 c541 0 997 -3 1013 -6 l29 -6 11 -261 c8 -189 9 -454 2 -947 -5 -377 -8
-1565 -6 -2640 3 -2138 -1 -1980 59 -2160 18 -55 32 -76 92 -136 65 -64 78
-72 146 -92 119 -34 320 -42 960 -39 l585 3 80 27 c44 15 102 44 130 65 73 55
144 156 188 266 l37 95 -4 2563 c-3 1410 -6 2592 -6 2628 -1 36 2 134 5 217
l7 153 1132 2 1131 3 60 24 c45 18 78 42 130 95 100 100 108 129 116 406 3
118 12 280 18 359 8 96 11 315 9 670 -4 473 -6 532 -22 581 -32 98 -76 167
-151 239 -96 91 -150 111 -340 123 -205 12 -3884 27 -5280 20 l-1200 -5 -28
92 c-40 134 -143 313 -242 419 -75 81 -153 132 -256 167 -79 27 -96 29 -264
31 -99 1 -200 -1 -225 -5z m322 -470 c47 -18 137 -120 165 -187 10 -24 21 -44
25 -44 4 0 27 -62 52 -137 75 -235 87 -254 196 -296 l65 -25 3115 -1 c1956 0
3162 -4 3240 -11 69 -5 168 -10 220 -10 118 -1 128 -7 140 -92 13 -84 11 -824
-1 -963 -6 -60 -13 -198 -16 -305 -3 -111 -9 -200 -15 -207 -8 -10 -254 -13
-1165 -13 l-1155 0 -66 -26 c-79 -31 -115 -62 -145 -124 -18 -40 -22 -72 -30
-275 -5 -126 -8 -309 -8 -405 1 -96 3 -1275 6 -2620 6 -2647 9 -2486 -45
-2540 -20 -20 -33 -21 -518 -25 -551 -4 -725 3 -753 32 -40 39 -41 154 -34
2601 4 1285 8 2454 9 2597 1 143 -3 382 -7 530 -7 241 -11 276 -30 328 -38
101 -127 160 -272 180 -41 6 -549 11 -1245 14 l-1175 4 -58 -23 c-109 -43
-160 -135 -171 -303 -3 -55 -11 -120 -16 -145 -41 -179 -50 -211 -69 -231 -12
-13 -21 -28 -21 -34 0 -6 -27 -39 -59 -73 -58 -61 -60 -62 -113 -62 -114 1
-429 102 -488 158 -12 11 -52 35 -89 52 -36 18 -68 35 -71 38 -3 4 -38 22 -77
41 -40 19 -73 38 -73 43 0 4 -6 8 -14 8 -8 0 -21 6 -28 13 -7 6 -41 25 -75 41
-35 16 -63 33 -63 37 0 4 -11 10 -25 13 -14 4 -25 11 -25 16 0 6 -6 10 -14 10
-8 0 -21 6 -28 13 -7 6 -82 46 -167 87 -85 41 -159 80 -165 86 -28 26 -198
133 -263 164 -40 19 -73 38 -73 43 0 4 -6 7 -13 7 -8 0 -32 17 -53 38 -22 20
-65 57 -96 82 -35 28 -63 60 -72 83 -9 21 -22 40 -30 43 -8 3 -22 23 -30 45
-9 21 -20 39 -25 39 -16 0 -31 69 -31 138 0 73 16 116 65 176 20 24 44 61 54
81 30 63 97 135 333 363 70 67 132 122 138 122 12 0 117 73 164 115 16 14 33
25 37 25 14 0 130 91 136 106 3 7 14 16 25 20 26 8 153 110 191 153 15 17 32
31 38 31 10 0 113 79 172 133 16 15 35 27 41 27 6 0 28 16 48 36 21 19 58 44
82 55 25 11 48 24 51 29 14 23 156 74 255 91 53 9 177 3 212 -10z"/>
</g>
</svg>